{"title":"Parker.2013.BRRip.x264.AC3-PsiX","uid":8435962,"size":1557753709,"categoryP":"video","categoryS":"movies","magnet":"?xt=urn:btih:054b8419d3bccfbc13a909c313b73efc0bdb2cdf&amp;dn=Parker.2013.BRRip.x264.AC3-PsiX&amp;tr=udp%3A%2F%2Ftracker.openbittorrent.com%3A80&amp;tr=udp%3A%2F%2Fopen.demonii.com%3A1337&amp;tr=udp%3A%2F%2Ftracker.coppersurfer.tk%3A6969&amp;tr=udp%3A%2F%2Fexodus.desync.com%3A6969","seeders":1,"leechers":0,"uploader":"psix2","files":9,"time":1367631114,"description":"Parker 2013 BRRip.x264.AC3-PsiX\n\n &lt;a href=&quot;\nhttp://www.freeimgshost.com/fullsize/9by3ne7t7w4po3yeff.jpg&quot; rel=&quot;nofollow&quot; target=&quot;_NEW&quot;&gt;\nhttp://www.freeimgshost.com/fullsize/9by3ne7t7w4po3yeff.jpg&lt;/a&gt;\n\n\n\n\n\n\n\n\nA thief with a unique code of professional ethics is double-crossed by his\ncrew and left for dead. Assuming a new disguise and forming an unlikely\nalliance with a woman on the inside, he looks to hijack the score of the\ncrew's latest heist.\n &lt;a href=&quot;\nhttp://www.freeimgshost.com/fullsize/fedhwpkwo8bmwo81z317.jpg&quot; rel=&quot;nofollow&quot; target=&quot;_NEW&quot;&gt;\nhttp://www.freeimgshost.com/fullsize/fedhwpkwo8bmwo81z317.jpg&lt;/a&gt;\n\n\nDirector:\n\nTaylor Hackford\n\nWriters:\n\nJohn J. McLaughlin (screenplay), Donald E. Westlake (novel)\n\nStars:\n\nJason Statham, Jennifer Lopez, Michael Chiklis\n\n &lt;a href=&quot;\nhttp://www.freeimgshost.com/fullsize/x4xfmezr6oyqe5qqbyi9.png&quot; rel=&quot;nofollow&quot; target=&quot;_NEW&quot;&gt;\nhttp://www.freeimgshost.com/fullsize/x4xfmezr6oyqe5qqbyi9.png&lt;/a&gt;\n &lt;a href=&quot;\nhttp://www.freeimgshost.com/fullsize/t1ddexsk6zk17zk1uvym.png&quot; rel=&quot;nofollow&quot; target=&quot;_NEW&quot;&gt;\nhttp://www.freeimgshost.com/fullsize/t1ddexsk6zk17zk1uvym.png&lt;/a&gt;\n &lt;a href=&quot;\nhttp://www.freeimgshost.com/fullsize/5b7j0os6l20mvbie5ebf.png&quot; rel=&quot;nofollow&quot; target=&quot;_NEW&quot;&gt;\nhttp://www.freeimgshost.com/fullsize/5b7j0os6l20mvbie5ebf.png&lt;/a&gt;\n &lt;a href=&quot;\nhttp://www.freeimgshost.com/fullsize/tg32ojzeo1jnyjpkjk.png&quot; rel=&quot;nofollow&quot; target=&quot;_NEW&quot;&gt;\nhttp://www.freeimgshost.com/fullsize/tg32ojzeo1jnyjpkjk.png&lt;/a&gt;\n &lt;a href=&quot;\nhttp://www.freeimgshost.com/fullsize/1voyuck1o786pdosnc0h.png&quot; rel=&quot;nofollow&quot; target=&quot;_NEW&quot;&gt;\nhttp://www.freeimgshost.com/fullsize/1voyuck1o786pdosnc0h.png&lt;/a&gt;\n\n\n\n\nParker.2013.BRRip.x264.AC3-PsiX.mkv\nFormat : Matroska\nFormat version : Version 2\nFile size : 1.45 GiB\nDuration : 1h 58mn\nOverall bit rate : 1 749 Kbps\nEncoded date : UTC 2013-05-03 13:23:28\nWriting application : mkvmerge v6.1.0 ('Old Devil') built on Mar 2 2013 14:32:37\nWriting library : libebml v1.3.0 + libmatroska v1.4.0\n\nVideo\nID : 1\nFormat : AVC\nFormat/Info : Advanced Video Codec\nFormat profile : &lt;a class=&quot;__cf_email__&quot; href=&quot;/cdn-cgi/l/email-protection&quot; data-cfemail=&quot;f3bb9a949bb3bfc7ddc2&quot;&gt;[email&amp;#160;protected]&lt;/a&gt;&lt;script data-cfhash='f9e31' type=&quot;text/javascript&quot;&gt;\n/* &lt;![CDATA[ */!function(){try{var t=&quot;currentScript&quot;in document?document.currentScript:function(){for(var t=document.getElementsByTagName(&quot;script&quot;),e=t.length;e--;)if(t[e].getAttribute(&quot;data-cfhash&quot;))return t[e]}();if(t&amp;&amp;t.previousSibling){var e,r,n,i,c=t.previousSibling,a=c.getAttribute(&quot;data-cfemail&quot;);if(a){for(e=&quot;&quot;,r=parseInt(a.substr(0,2),16),n=2;a.length-n;n+=2)i=parseInt(a.substr(n,2),16)^r,e+=String.fromCharCode(i);e=document.createTextNode(e),c.parentNode.replaceChild(e,c)}t.parentNode.removeChild(t);}}catch(u){}}()/* ]]&gt; */&lt;/script&gt;\nFormat settings, CABAC : Yes\nFormat settings, ReFrames : 8 frames\nCodec ID : V_MPEG4/ISO/AVC\nDuration : 1h 58mn\nBit rate : 1 364 Kbps\nWidth : 720 pixels\nHeight : 304 pixels\nDisplay aspect ratio : 2.35:1\nFrame rate mode : Constant\nFrame rate : 23.976 fps\nColor space : YUV\nChroma subsampling : 4:2:0\nBit depth : 8 bits\nScan type : Progressive\nBits/(Pixel*Frame) : 0.260\nStream size : 1.10 GiB (76%)\nWriting library : x264 core 130 r2273 b3065e6\n\n\nAudio\nID : 2\nFormat : AC-3\nFormat/Info : Audio Coding 3\nMode extension : CM (complete main)\nFormat settings, Endianness : Big\nCodec ID : A_AC3\nDuration : 1h 58mn\nBit rate mode : Constant\nBit rate : 384 Kbps\nChannel(s) : 6 channels\nChannel positions : Front: L C R, Side: L R, LFE\nSampling rate : 48.0 KHz\nBit depth : 16 bits\nCompression mode : Lossy\nStream size : 326 MiB (22%)\nLanguage : English\nDefault : Yes\nForced : No\n\n\n\n\nEncoded............: PsiX\nSource.............: 720p-iNFAMOUS\nSubs..........srt.....Brazilian, Dutch, English, Italian, Romanian, Spanish, Greek","torrent":{"xt":"urn:btih:054b8419d3bccfbc13a909c313b73efc0bdb2cdf","amp;dn":"Parker.2013.BRRip.x264.AC3-PsiX","amp;tr":["udp%3A%2F%2Ftracker.openbittorrent.com%3A80","udp%3A%2F%2Fopen.demonii.com%3A1337","udp%3A%2F%2Ftracker.coppersurfer.tk%3A6969","udp%3A%2F%2Fexodus.desync.com%3A6969"],"infoHash":"054b8419d3bccfbc13a909c313b73efc0bdb2cdf","infoHashBuffer":{"type":"Buffer","data":[5,75,132,25,211,188,207,188,19,169,9,195,19,183,62,252,11,219,44,223]},"announce":[],"urlList":[]}}